<?xml version="1.0" encoding="UTF-8"?>
<svg width="1200" height="1200" version="1.1" viewBox="0 0 1200 1200" xmlns="http://www.w3.org/2000/svg">
 <rect width="1200" height="1200" fill="#f8f8f8"/>
 <g fill="#e0e0e0">
  <path d="m600 450c-82.843 0-150 67.157-150 150s67.157 150 150 150 150-67.157 150-150-67.157-150-150-150zm0 50c55.228 0 100 44.772 100 100s-44.772 100-100 100-100-44.772-100-100 44.772-100 100-100z"/>
  <path d="m600 350c-137.5 0-250 112.5-250 250s112.5 250 250 250 250-112.5 250-250-112.5-250-250-250zm0 83.333c91.667 0 166.67 75 166.67 166.67s-75 166.67-166.67 166.67-166.67-75-166.67-166.67 75-166.67 166.67-166.67z"/>
 </g>
</svg>
